<?xml version="1.0" encoding="utf-8"?>
<!-- Generator: Adobe Illustrator 22.0.1, SVG Export Plug-In . SVG Version: 6.00 Build 0)  -->
<svg version="1.1" id="圖層_1" xmlns="http://www.w3.org/2000/svg" xmlns:xlink="http://www.w3.org/1999/xlink" x="0px" y="0px"
	 viewBox="0 0 265.5 80" style="enable-background:new 0 0 265.5 80;" xml:space="preserve">
<style type="text/css">
	.st0{fill:#FF0040;}
	.st1{fill:#FFFFFF;}
</style>
<title>BARVO_logo</title>
<path class="st0" d="M59.3,74.2c-1.4-5.1-1.1-10.1-1-15.1c0.3-13.4,0.6-26.8,0.8-40.1c0-1.6,0.8-4-1.6-4.5C55.7,14,54.9,16,54,17.2
	c-3,4-4.9,8.7-5.7,13.7c-1.4,8.3-1.4,16.7-1.2,25.1c0.1,2.9,0.5,5.7,3.3,7.5c2.1,1.4,2.4,3.6,2.1,5.7c-0.5,3.1,1.8,7.5-2.3,9.1
	C44.9,80.4,39,80.6,33.4,79c-1-0.3-1-1.4-1.1-2.2c-0.9-6.4-1.5-12.8,0.2-19.1c0.4-1.5,1-3.4,2.1-4.2c4.8-3.4,4.9-8.3,4.8-13.4
	c-0.2-6.6-0.3-13.2-0.4-19.8c0-1,0.1-2.4-1.3-2.6c-1.8-0.2-1.9,1.4-1.9,2.6c-0.1,6.4,0,12.7-0.6,19.1c-2.4-2.5-1.3-5.6-1.4-8.3
	c-0.2-3.2,0-6.4-0.1-9.6c0-1.5,0.6-3.9-1.7-3.7c-2,0.1-1.6,2.4-1.7,4c0,5.9,0,11.8,0,17.8h-2c0-5.4,0.1-10.7-0.1-16.1
	c-0.1-2,1.1-5.4-1.4-5.5c-3.3-0.1-1.8,3.5-2,5.5c-0.4,5.4,0.5,10.8-0.5,16.1h-1.5v-9.7c0-3.2,0-6.4,0-9.6c0-1.1,0-2.4-1.3-2.5
	c-1.7-0.2-1.9,1.3-2,2.5c-0.1,1.6-0.1,3.2-0.1,4.8c0,5.9,0.1,11.8-0.1,17.7c-0.1,4,0.8,7.2,4,9.9c4.5,3.8,3.7,9.4,3.6,14.5
	c-0.1,3.2,1.6,7.9-1.5,9.3c-2.7,1.2-6.1-2.2-8.8-4.2c-17.9-12.8-22-37.7-9.2-55.6C14.7,6.5,26.3,0.3,38.9,0
	c17.7-0.4,33,10,38.8,26.4c5.7,16.1,0.6,34.1-12.8,44.8C63.3,72.4,61.9,73.8,59.3,74.2z"/>
<path class="st1" d="M100.8,26.9c0-8.3,0-9.8-0.1-11.5s-0.5-2.7-2.3-3c-0.5-0.1-1-0.1-1.5-0.2c-0.5,0-0.7-0.1-0.7-0.3
	s0.3-0.4,0.8-0.4c2.4,0,5.7,0.2,6,0.2c1.3,0,3.3-0.2,5.8-0.2c8.7,0,10.6,5.3,10.6,8c0,4.4-2.5,7-5,9.5c3.9,1.2,9.2,5,9.2,11.2
	c0,5.7-4.5,11.6-13.5,11.6c-0.6,0-2.3-0.1-3.8-0.2s-3-0.2-3.2-0.2c-1.7,0-3.3,0.2-5.2,0.2c-0.6,0-0.8-0.1-0.8-0.4s0.1-0.4,0.8-0.4
	c0.4,0,0.9-0.1,1.3-0.2c1.1-0.2,1.3-1.4,1.5-3c0.3-2.2,0.3-6.4,0.3-11.5L100.8,26.9z M105.1,28c0,0.4,0.1,0.5,0.4,0.6
	c1.1,0.2,2.2,0.2,3.2,0.2c3,0,3.7-0.1,4.8-1.4c1.3-1.5,1.9-3.4,1.9-5.4c0-4.4-2-9.1-7.2-9.1c-0.9,0-1.7,0.1-2.6,0.3
	c-0.5,0.1-0.6,0.3-0.6,0.6L105.1,28z M105.1,33.6c0,4.1,0,10.7,0,11.5c0.2,2.6,0.2,3.3,1.8,4.1c1.5,0.6,3.1,0.8,4.7,0.8
	c2.9,0,7.5-1.5,7.5-7.5c0-3.2-1.1-7.8-5.1-10.6c-1.3-0.9-2.8-1.4-4.4-1.5c-0.7-0.1-3.3-0.1-4.1-0.1c-0.2,0-0.3,0.1-0.3,0.4
	L105.1,33.6z"/>
<path class="st1" d="M134,36c-0.3,0-0.5,0.2-0.5,0.4l-3.2,9.4c-0.4,1.1-0.7,2.3-0.7,3.6c0,1.1,1,1.5,1.9,1.5h0.6
	c0.5,0,0.7,0.1,0.7,0.3s-0.5,0.4-1,0.4c-1.3,0-3.4-0.2-4-0.2s-3.5,0.2-6,0.2c-0.7,0-1-0.1-1-0.4s0.3-0.3,0.7-0.3
	c0.4,0,0.9-0.1,1.3-0.1c2.4-0.3,3.5-2.3,4.4-5l12-32.9c0.6-1.8,0.9-2.1,1.2-2.1s0.5,0.3,1.2,1.9c0.8,2,9.1,23.9,12.4,32
	c1.9,4.7,3.4,5.6,4.6,5.9c0.7,0.2,1.4,0.3,2.1,0.3c0.3,0,0.6,0,0.6,0.3s-0.5,0.4-1.1,0.4c-0.8,0-4.7,0-8.3-0.1c-1,0-1.6,0-1.6-0.4
	s0.1-0.3,0.4-0.4s0.6-0.6,0.3-1.4l-4.9-13c-0.1-0.2-0.3-0.3-0.5-0.3L134,36z M144.7,34c0.3,0,0.3-0.2,0.2-0.4l-5-14.3
	c-0.3-0.8-0.5-0.8-0.8,0l-4.7,14.3c-0.1,0.3,0,0.4,0.2,0.4H144.7z"/>
<path class="st1" d="M163.4,26.9c0-8.3,0-9.8-0.1-11.5s-0.5-2.7-2.3-3c-0.6-0.1-1.2-0.2-1.8-0.2c-0.2,0-0.4-0.1-0.4-0.3
	s0.3-0.4,0.9-0.4c2.4,0,5.7,0.2,6,0.2c0.6,0,4.6-0.2,6.3-0.2c3.3,0,6.9,0.3,9.7,2.3c2.2,1.7,3.6,4.3,3.7,7.2c0,3.9-1.6,7.9-6.4,12.3
	c4.4,5.6,8,10.3,11,13.6c2.9,3,5.1,3.6,6.5,3.8c0.7,0.1,1.4,0.2,2.1,0.2c0.3,0,0.5,0.2,0.5,0.3c0,0.3-0.3,0.4-1.3,0.4h-3.8
	c-3,0-4.3-0.3-5.7-1c-2.3-1.2-4.1-3.8-7.2-7.8c-2.2-2.9-4.7-6.5-5.8-7.8c-0.2-0.2-0.4-0.3-0.7-0.3l-6.5-0.1c-0.3,0-0.4,0.2-0.4,0.4
	v1.3c0,5.1,0,9.3,0.3,11.5c0.2,1.5,0.5,2.7,2.1,2.9c0.8,0.1,1.6,0.2,2.4,0.2c0.3,0,0.4,0.2,0.4,0.3s-0.3,0.4-0.9,0.4
	c-2.9,0-6.3-0.2-6.5-0.2c-0.1,0-3.4,0.2-5,0.2c-0.6,0-0.9-0.1-0.9-0.4c0-0.2,0.1-0.3,0.4-0.3c0.5,0,1.1-0.1,1.6-0.2
	c1.1-0.2,1.3-1.4,1.5-2.9c0.3-2.2,0.3-6.4,0.3-11.5L163.4,26.9z M167.7,31.5c0,0.3,0.1,0.5,0.4,0.6c0.8,0.5,3.2,0.8,5.6,0.8
	c1.4,0.1,2.8-0.3,4-1c1.9-1.3,3.2-4.1,3.2-8.2c0-6.6-3.5-10.6-9.2-10.6c-1.2,0-2.4,0.1-3.6,0.3c-0.3,0.1-0.4,0.3-0.4,0.6L167.7,31.5
	z"/>
<path class="st1" d="M191.3,16.5c-1.2-3-2-3.6-3.8-4.1c-0.7-0.2-1.3-0.2-2-0.2c-0.3,0-0.4-0.2-0.4-0.4s0.5-0.4,1.4-0.4
	c2.6,0,5.4,0.2,6.1,0.2s2.8-0.2,4.8-0.2c1,0,1.4,0.1,1.4,0.4s-0.1,0.4-0.5,0.4c-0.7,0-1.4,0.1-2,0.3c-0.4,0.2-0.7,0.6-0.7,1.1
	c0.2,1.2,0.6,2.3,1,3.4l10.8,28.2c3.1-7.2,10.2-25.7,11.4-29.5c0.2-0.6,0.4-1.3,0.5-2c0-0.5-0.2-1-0.7-1.2c-0.7-0.2-1.3-0.3-2-0.2
	c-0.3,0-0.6-0.1-0.6-0.3s0.3-0.4,1.2-0.4c2.1,0,4.6,0.2,5.2,0.2c0.3,0,2.6-0.2,4.1-0.2c0.6,0,0.9,0.1,0.9,0.4s-0.2,0.4-0.6,0.4
	c-0.9,0-1.8,0.2-2.5,0.6c-0.7,0.5-1.5,1.4-2.9,5c-0.6,1.5-3.2,7.9-5.9,14.4c-3.3,7.8-5.6,13.5-6.9,16.1c-1.5,3.2-1.7,4-2.2,4
	s-0.9-0.7-1.9-3.3L191.3,16.5z"/>
<path class="st1" d="M223.8,31.5c0-8.6,6.3-20.7,20.9-20.7c11.9,0,20.8,7.5,20.8,19.9c0,11.9-8.4,21.7-21.2,21.7
	C229.8,52.3,223.8,41,223.8,31.5z M260.4,32.1c0-12.7-7.7-19.6-16.1-19.6c-8.9,0-15.5,5.8-15.5,17.5c0,12.4,7.4,20.3,17,20.3
	C250.6,50.3,260.5,47.6,260.4,32.1L260.4,32.1z"/>
<g>
	<path class="st1" d="M97,61.1h3.4c1.8,0,3,1,3,2.6c0,1.8-1.3,2.7-3,2.7h-2.2v3.7H97V61.1z M98.2,65.4h2.1c1.2,0,1.9-0.6,1.9-1.7
		c0-1.1-0.8-1.7-1.8-1.7h-2.1V65.4z"/>
	<path class="st1" d="M113,61.1v9h-1.2v-9H113z"/>
	<path class="st1" d="M121.2,69.2l5.5-7.1h-5.2v-1h6.6v1l-5.4,7h5.6l-0.2,1h-6.9V69.2z"/>
	<path class="st1" d="M135.9,69.2l5.5-7.1h-5.2v-1h6.6v1l-5.4,7h5.6l-0.2,1h-6.9V69.2z"/>
	<path class="st1" d="M152.5,67.5l-1,2.7h-1.2l3.2-9h1.5l3.4,9h-1.3l-1-2.7H152.5z M155.8,66.4c-0.9-2.4-1.3-3.6-1.5-4.3h0
		c-0.2,0.8-0.8,2.3-1.4,4.3H155.8z"/>
	<path class="st1" d="M166.4,70.2v-1.9h1.2v1.9H166.4z"/>
	<path class="st1" d="M184,64.4l-2.3,3.4c-1.1,1.6-1.8,2.5-3.5,2.5c-1.7,0-2.6-1.2-2.6-2.4c0-1.2,0.7-2,2.4-2.9
		c1.2-0.6,1.8-1.1,1.8-1.9c0-0.6-0.4-1.2-1.1-1.2c-0.7,0-1.2,0.5-1.2,1.3c0,0.6,0.4,1.1,1.1,1.7l5.4,5.3h-1.5l-4.8-4.8
		c-0.7-0.7-1.2-1.3-1.2-2.2c0-1.2,0.8-2.2,2.3-2.2c1.3,0,2.2,0.9,2.2,2.1c0,1-0.6,1.6-2.3,2.5c-1.6,0.8-1.9,1.4-1.9,2.2
		c0,0.8,0.6,1.5,1.5,1.5c1,0,1.6-0.4,2.7-2.1l1.8-2.7H184z"/>
	<path class="st1" d="M192.1,70.2v-1.9h1.2v1.9H192.1z"/>
	<path class="st1" d="M201.8,61.1h3.4c1.8,0,3,1,3,2.6c0,1.8-1.3,2.7-3,2.7H203v3.7h-1.2V61.1z M203,65.4h2.1c1.2,0,1.9-0.6,1.9-1.7
		c0-1.1-0.8-1.7-1.8-1.7H203V65.4z"/>
	<path class="st1" d="M216.9,67.5l-1,2.7h-1.2l3.2-9h1.5l3.4,9h-1.3l-1-2.7H216.9z M220.2,66.4c-0.9-2.4-1.3-3.6-1.5-4.3h0
		c-0.2,0.8-0.8,2.3-1.4,4.3H220.2z"/>
	<path class="st1" d="M231.6,67.7c0.2,1.1,1,1.7,2.3,1.7c1.4,0,2-0.7,2-1.5c0-0.9-0.4-1.4-2.3-1.9c-2.1-0.5-2.9-1.2-2.9-2.5
		c0-1.3,1-2.4,3-2.4c2.2,0,3,1.2,3.2,2.4h-1.2c-0.2-0.8-0.7-1.5-2-1.5c-1.1,0-1.7,0.5-1.7,1.4c0,0.8,0.5,1.2,2.1,1.6
		c2.6,0.6,3,1.6,3,2.8c0,1.5-1.1,2.6-3.3,2.6c-2.3,0-3.3-1.2-3.4-2.6H231.6z"/>
	<path class="st1" d="M247.4,62.2h-2.9v-1h7.1v1h-2.9v8h-1.2V62.2z"/>
	<path class="st1" d="M259.7,67.5l-1,2.7h-1.2l3.2-9h1.5l3.4,9h-1.3l-1-2.7H259.7z M263,66.4c-0.9-2.4-1.3-3.6-1.5-4.3h0
		c-0.2,0.8-0.8,2.3-1.4,4.3H263z"/>
</g>
</svg>
